# xmcd
#
# Track frame offsets:
#	150
#	17593
#	32049
#	47086
#	65386
#	78023
#	93360
#	112085
#	130906
#	147518
#	163155
#	175717
#	190044
#	208503
#	222949
#	238961
#	258483
#	276895
#
# Disc length: 3908 seconds
#
# Revision: 0
# Processed by: cddbd v1.5.2PL0 Copyright (c) Steve Scherf et al.
# Submitted via: audiograbber 1.83.01
#
DISCID=030f4212
DTITLE=Various Artist - Promo Only Country Radio August 2011
DYEAR=2011
DGENRE=Country
TTITLE0=Jason Aldean Ft. Ludacris - Dirt Road Anthem (Remix)
TTITLE1=Shania Twain - Today Is Your Day
TTITLE2=Big and Rich - Fake I.D.
TTITLE3=Scott McCreery - I Love You This Big
TTITLE4=Jerrod Niemann - One More Drinkin' Song
TTITLE5=Colt Ford Ft. Craig Morgan - She Likes To Ride In Trucks
TTITLE6=Brad Paisley and Carrie Underwood - Remidn Me
TTITLE7=Lauren Alaina - Like My Mother Does
TTITLE8=McClymonts - Wrapped Up Good
TTITLE9=JT Hodges - Hunt You Down
TTITLE10=Craig Campbell - Fish
TTITLE11=Kristin Chenoweth - I Want Somebody (Bitch About)
TTITLE12=Ronnie Dunn - Cost Of Livin' (Full Length Version - $3 A Gallon)
TTITLE13=Marlee Scott - Beautiful Maybe
TTITLE14=Steve Azar - Soldier song
TTITLE15=Christian Kane - Let Me Go
TTITLE16=LeAnn Rimes - Give
TTITLE17=Rascal Flatts Ft. Natasha Beddingfield - Easy
EXTD=
EXTT0=
EXTT1=
EXTT2=
EXTT3=
EXTT4=
EXTT5=
EXTT6=
EXTT7=
EXTT8=
EXTT9=
EXTT10=
EXTT11=
EXTT12=
EXTT13=
EXTT14=
EXTT15=
EXTT16=
EXTT17=
PLAYORDER=
